<?xml version="1.0" encoding="UTF-8" standalone="no"?>
<svg
   xmlns:dc="http://purl.org/dc/elements/1.1/"
   xmlns:cc="http://creativecommons.org/ns#"
   xmlns:rdf="http://www.w3.org/1999/02/22-rdf-syntax-ns#"
   xmlns:svg="http://www.w3.org/2000/svg"
   xmlns="http://www.w3.org/2000/svg"
   id="svg1459"
   version="1.1"
   data-name="Layer 1"
   viewBox="0 0 93.333331 93.333331"
   x="0px"
   y="0px"
   width="70pt"
   height="70pt">
  <defs
     id="defs1463" />
  <path
     d="M 63.457035,23.002913 A 36.517839,36.517839 0 0 1 37.89561,2.1123294e-7 L 18.706782,19.188834 C 49.077258,51.028084 65.9208,52.520548 72.198618,51.312357 A 73.70573,73.70573 0 0 1 63.457035,23.002913 Z M 9.4203341,40.367623 22.852519,53.799805 a 19.800039,19.800039 0 0 1 14.166572,7.106971 L 59.45344,87.794837 a 14.875156,14.875156 0 0 0 10.778924,5.519752 15.076172,15.076172 0 0 0 11.584369,-4.572157 l 0.331643,-0.331676 A 14.506628,14.506628 0 0 0 83.61718,69.695715 C 80.584869,65.573706 78.026369,61.641177 75.823198,57.921862 68.526703,60.480372 50.072255,60.8831 17.593382,28.40422 l -4.051013,-4.05099 -4.1694259,4.169427 a 8.4426563,8.4426563 0 0 0 0.04738,11.844959 z"
     id="path835"
     style="fill:#000000;stroke-width:3.35026" />
</svg>
