<?xml version="1.0" encoding="UTF-8" standalone="no"?>
<svg
   xmlns="http://www.w3.org/2000/svg"
   height="27.85853"
   width="23.697212"
   y="0px"
   x="0px"
   viewBox="0 0 23.697212 27.85853"
   data-name="Layer 1">
  <path
     style="fill:#ffffff"
     id="path835"
     d="M 16.860267,6.8660075 A 10.9,10.9 0 0 1 9.2305845,0 L 3.5030216,5.727565 C 12.56813,15.23108 17.595662,15.676557 19.469492,15.315931 A 22,22 0 0 1 16.860267,6.8660075 Z M 0.73116287,12.0491 4.7404585,16.058395 a 5.91,5.91 0 0 1 4.2284992,2.121319 l 6.6962993,8.025663 a 4.44,4.44 0 0 0 3.217339,1.647559 4.5,4.5 0 0 0 3.457752,-1.364717 l 0.09899,-0.099 a 4.33,4.33 0 0 0 0.438415,-5.586145 C 21.972656,19.572719 21.208984,18.398921 20.551372,17.288764 18.373483,18.052439 12.865121,18.172647 3.1706891,8.4782125 L 1.9615256,7.2690558 0.71701737,8.513564 a 2.52,2.52 0 0 0 0.014142,3.535534 z" />
</svg>
