<svg version="1.1" xmlns="http://www.w3.org/2000/svg" xmlns:xlink="http://www.w3.org/1999/xlink" viewBox="0 0 172 172"><g fill="none" fill-rule="nonzero" stroke="none" stroke-width="1" stroke-linecap="butt" stroke-linejoin="miter" stroke-miterlimit="10" stroke-dasharray="" stroke-dashoffset="0" font-family="none" font-weight="none" font-size="none" text-anchor="none" style="mix-blend-mode: normal"><path d="M0,172v-172h172v172z" fill="none"></path><g fill="#000000"><path d="M107.715,28.66667h-43.43l2.72333,-8.815c2.29333,-7.59667 9.17333,-12.685 17.12833,-12.685h3.72667c7.955,0 14.835,5.08833 17.12833,12.685z"></path><path d="M137.31333,150.42833c-3.36833,4.515 -8.74333,7.23833 -14.405,7.23833h-73.81667c-5.66167,0 -11.03667,-2.72333 -14.405,-7.23833c-3.36833,-4.58667 -4.37167,-10.535 -2.72333,-15.91l6.09167,-19.85167h95.89l6.09167,19.85167c1.64833,5.375 0.645,11.32333 -2.72333,15.91z"></path><path d="M133.945,114.66667h-95.89l25.51333,-83.56333l0.93167,-2.43667h43l0.93167,2.43667z" opacity="0.35"></path><path d="M86,129c-3.956,0 -7.16667,-3.21067 -7.16667,-7.16667v-100.33333c0,-3.956 3.21067,-7.16667 7.16667,-7.16667c3.956,0 7.16667,3.21067 7.16667,7.16667v100.33333c0,3.956 -3.21067,7.16667 -7.16667,7.16667z"></path><path d="M86,129c-2.05683,0 -4.09217,-0.8815 -5.51117,-2.58l-71.66667,-86c-2.52983,-3.03867 -2.11417,-7.56083 0.9245,-10.09067c3.03867,-2.54417 7.55367,-2.12133 10.09067,0.91733l71.66667,86c2.537,3.03867 2.12133,7.56083 -0.91733,10.09067c-1.34017,1.118 -2.967,1.66267 -4.58667,1.66267z"></path><path d="M21.586,63.425c-2.064,0 -4.11367,-0.88867 -5.53267,-2.60867c-2.5155,-3.053 -2.0855,-7.568 0.9675,-10.0835l11.30183,-9.31667c3.06017,-2.5155 7.57517,-2.07833 10.09067,0.9675c2.5155,3.053 2.0855,7.568 -0.9675,10.0835l-11.30183,9.31667c-1.34017,1.10367 -2.95267,1.64117 -4.558,1.64117z"></path></g></g></svg>